<?xml version="1.0" encoding="UTF-8"?>
<svg version="1.1" xmlns="http://www.w3.org/2000/svg" width="1024" height="1024">
<path d="M0 0 C337.92 0 675.84 0 1024 0 C1024 337.92 1024 675.84 1024 1024 C686.08 1024 348.16 1024 0 1024 C0 686.08 0 348.16 0 0 Z " fill="#FDFDFD" transform="translate(0,0)"/>
<path d="M0 0 C31.8117587 26.58369383 50.50638049 62.72640049 54.453125 103.9453125 C57.79738888 147.10898951 40.20988208 186.40294228 12.7434082 218.53686523 C11.22979733 220.28942941 9.70954789 222.03601179 8.1875 223.78125 C5.86766244 226.44635831 3.64084359 229.16998354 1.453125 231.9453125 C-2.25782526 236.64379214 -6.14650543 241.17326486 -10.05688477 245.70532227 C-13.08669592 249.22302878 -16.06289885 252.7739302 -18.984375 256.3828125 C-23.12748491 261.48838715 -27.4291795 266.44331303 -31.74975586 271.39819336 C-34.91153338 275.03269101 -38.01537706 278.70052093 -41.046875 282.4453125 C-45.6435589 288.11763724 -50.42901693 293.61563792 -55.22265625 299.12109375 C-58.3497945 302.71299101 -61.45215358 306.32547912 -64.546875 309.9453125 C-69.39675446 315.6171368 -74.2789455 321.26022271 -79.18359375 326.88476562 C-81.43132076 329.4693686 -83.62864743 332.05030246 -85.734375 334.75390625 C-88.19148291 337.7246768 -89.92505651 338.83557983 -93.734375 339.5078125 C-103.21778 338.1086216 -109.34175254 327.68923336 -115.12792969 320.66259766 C-117.39020143 317.92467277 -119.68753276 315.21673891 -121.984375 312.5078125 C-122.43530518 311.97462402 -122.88623535 311.44143555 -123.35083008 310.89208984 C-126.73283021 306.89545263 -130.13646715 302.91771868 -133.546875 298.9453125 C-138.78660852 292.84212756 -143.99022668 286.70934963 -149.17919922 280.56298828 C-150.57146917 278.91622271 -151.96692973 277.27221183 -153.36328125 275.62890625 C-157.59541133 270.64505002 -161.80424898 265.64971978 -165.921875 260.5703125 C-170.04559244 255.50403107 -174.31030602 250.57142942 -178.59790039 245.64428711 C-186.00055026 237.13453727 -193.34191197 228.57925429 -200.32421875 219.71875 C-202.06107895 217.55149035 -203.82326009 215.41963207 -205.61328125 213.296875 C-233.28633225 180.29038387 -245.58119783 140.2270474 -242.34472656 97.26171875 C-241.77979213 92.06858562 -240.78693722 87.01654412 -239.546875 81.9453125 C-239.26481201 80.77790527 -239.26481201 80.77790527 -238.97705078 79.58691406 C-229.48956543 41.77283162 -205.66772443 9.03912431 -172.41162109 -11.36474609 C-159.69271175 -18.93811376 -146.71709128 -24.71156924 -132.484375 -28.8046875 C-131.80117188 -29.00360596 -131.11796875 -29.20252441 -130.4140625 -29.4074707 C-85.24165469 -41.70850839 -35.97413725 -28.95557985 0 0 Z " fill="#27ACF8" transform="translate(606.546875,143.0546875)"/>
<path d="M0 0 C0.66 0 1.32 0 2 0 C2.21914063 1.0415625 2.43828125 2.083125 2.6640625 3.15625 C7.32402077 24.54523187 15.67922238 43.48850417 28.8359375 61.046875 C30.73111202 63.63306984 32.3742473 66.24174622 34 69 C33.47017517 69.52316299 32.94035034 70.04632599 32.39447021 70.58534241 C27.38463067 75.53488591 22.38217879 80.49175305 17.38773727 85.45682621 C14.820242 88.00871497 12.25005287 90.5577581 9.67333984 93.1003418 C7.18332981 95.55757871 4.70087939 98.02222994 2.22333527 100.492033 C0.82372413 101.88346404 -0.58346314 103.26726108 -1.99078369 104.65089417 C-9.88962198 112.38808504 -9.88962198 112.38808504 -13.5 122.5625 C-12.55455199 129.06245507 -7.9333563 133.36142192 -3.42318726 137.84423828 C-2.87146209 138.40049456 -2.31973693 138.95675083 -1.75129282 139.52986336 C0.08768339 141.38143931 1.9336719 143.22585455 3.77978516 145.0703125 C5.10443389 146.40094929 6.4286727 147.73199428 7.75253296 149.06341553 C11.34301737 152.67154012 14.93994088 156.27317804 18.53861666 159.8731308 C20.78915986 162.12509742 23.03827214 164.37848296 25.28687668 166.63238525 C33.13882724 174.50283043 40.99591976 182.36809977 48.85791016 190.22851562 C56.17423806 197.5436427 63.47934551 204.86984258 70.77925646 212.20134926 C77.05678182 218.50507023 83.34203945 224.80101081 89.63331449 231.09100914 C93.38632144 234.84350738 97.13619176 238.59901102 100.87831497 242.36236572 C104.40052703 245.90401499 107.93231393 249.43583374 111.4715004 252.96051788 C112.76407097 254.251006 114.05327775 255.54487413 115.33872223 256.84246063 C124.92426553 266.5126094 134.35116399 275.78608761 148.6875 276.375 C162.52602792 276.08384285 171.54089863 268.73086916 180.8828125 259.28515625 C182.6582874 257.36882264 184.35634426 255.41735161 186.0546875 253.43359375 C191.21217566 247.5111948 196.86848205 242.07336656 202.45703125 236.56347656 C209.1119082 230.02960136 209.1119082 230.02960136 215.375 223.125 C221.07887661 216.45689663 227.51158055 210.43576201 233.74804688 204.27246094 C239.39953772 198.68136285 244.99257923 193.13171726 250.1484375 187.07421875 C255.02685168 181.60915983 260.39059547 176.56321471 265.60253906 171.41796875 C272.75709529 164.40390807 272.75709529 164.40390807 279.5 157 C284.80803468 150.77944604 290.78716672 145.15892134 296.60253906 139.41796875 C301.97915464 134.10398695 307.28135133 128.79531264 312.19384766 123.04199219 C316.16401744 118.55341418 320.4531961 114.36225464 324.6875 110.125 C325.63356272 109.16676457 326.57952683 108.20843178 327.52539062 107.25 C328.42837891 106.34507812 329.33136719 105.44015625 330.26171875 104.5078125 C331.48314575 103.28022217 331.48314575 103.28022217 332.72924805 102.02783203 C337.18059212 98.0526827 340.83013935 97.70526587 346.67431641 97.7253418 C347.44222 97.72023087 348.2101236 97.71511993 349.001297 97.70985413 C351.53479847 97.69597418 354.06802758 97.69691305 356.6015625 97.69921875 C358.36225486 97.69533219 360.12294627 97.6909976 361.88363647 97.68623352 C365.57056726 97.67877569 369.25740226 97.67906034 372.94433594 97.68432617 C377.67704972 97.69013368 382.4093738 97.67315697 387.14202309 97.6499815 C390.77591252 97.63527992 394.40970717 97.63436732 398.04362106 97.63749123 C399.78919627 97.63697665 401.53477659 97.63171349 403.28032303 97.62167931 C405.71530112 97.60939516 408.14950769 97.61605649 410.58447266 97.62768555 C411.30970627 97.62004181 412.03493988 97.61239807 412.78215027 97.60452271 C414.78726196 97.6257782 414.78726196 97.6257782 418 98 C420.33668873 101.5050331 420.48259429 102.87459716 420 107 C418.41796875 109.38671875 418.41796875 109.38671875 416.1875 111.6875 C415.36894531 112.54472656 414.55039062 113.40195312 413.70703125 114.28515625 C409.99741992 118.00547353 406.28637549 121.72370889 402.55078125 125.41796875 C400.4596604 127.53470824 398.48905782 129.673443 396.5625 131.9375 C393.103562 135.99654291 389.34164971 139.71728898 385.52563477 143.43725586 C382.78332273 146.13197897 380.19395798 148.89599936 377.6875 151.8125 C372.97385802 157.26167733 367.80620585 162.24087814 362.671875 167.2890625 C359.17945627 170.7458443 355.76195758 174.2060483 352.5625 177.9375 C347.51211349 183.81410182 341.89896256 189.14430553 336.3828125 194.578125 C332.63458062 198.29217847 328.93586363 201.99283352 325.5 206 C320.47574519 211.85966955 314.87758088 217.16536808 309.3828125 222.578125 C305.63458062 226.29217847 301.93586363 229.99283352 298.5 234 C293.47574519 239.85966955 287.87758088 245.16536808 282.3828125 250.578125 C278.67627057 254.25086868 275.01326454 257.90424931 271.625 261.875 C266.26272638 268.12889289 260.25602363 273.79844102 254.39746094 279.58203125 C249.01333498 284.90343594 243.7105046 290.22145163 238.79296875 295.984375 C234.04998865 301.31635263 228.81793697 306.21484856 223.73828125 311.22265625 C219.18771027 315.73382835 214.78088083 320.28210884 210.609375 325.14599609 C202.83353747 334.10377981 194.57602538 342.44310531 184 348 C182.98421875 348.54140625 181.9684375 349.0828125 180.921875 349.640625 C163.47916914 358.31984579 143.61857862 359.70883247 125 354 C106.3281409 347.53427299 93.72556326 335.3170058 80.05175781 321.58520508 C78.28202927 319.82254574 76.51146224 318.06072791 74.74012756 316.29968262 C70.45510677 312.03473401 66.17947802 307.7605834 61.9085792 303.48150871 C58.43312458 299.99972109 54.95392275 296.52171932 51.4720993 293.04630089 C50.97411879 292.54922203 50.47613829 292.05214318 49.96306746 291.54000133 C48.95100752 290.52979283 47.93894202 289.5195899 46.92687103 288.50939246 C37.46522343 279.06427321 28.01619089 269.60661381 18.57125327 260.14478912 C9.95422319 251.51306466 1.32261752 242.89609002 -7.3161653 234.28614072 C-16.21604157 225.4157455 -25.10656725 216.53607987 -33.98695302 207.64617079 C-34.99374217 206.63835923 -36.00054523 205.63056155 -37.00736237 204.62277794 C-37.50256508 204.12709884 -37.99776778 203.63141974 -38.50797664 203.12072006 C-41.97565999 199.65088416 -45.44924626 196.1870281 -48.92531586 192.72559547 C-53.61575477 188.05463453 -58.29272934 183.37047905 -62.96118355 178.67752838 C-64.66882556 176.9649049 -66.3806674 175.25645633 -68.09715843 173.55270195 C-83.11517216 158.63727476 -96.63379237 143.48663024 -97.3125 121.125 C-97.10114054 105.59007996 -91.27429612 92.37385414 -80.71484375 81.10546875 C-80.19848862 80.55052734 -79.68213348 79.99558594 -79.15013123 79.42382812 C-72.45681287 72.28296854 -65.50483083 65.39717884 -58.5625 58.5 C-57.21395432 57.15648924 -55.86564598 55.81274021 -54.51757812 54.46875 C-51.51669414 51.47770194 -48.51383552 48.4886604 -45.50776672 45.50282288 C-44.14124946 44.14078632 -42.78348556 42.76998155 -41.42675781 41.39819336 C-38.86336566 38.86497393 -36.21945716 36.44841384 -33.54296875 34.03515625 C-27.19424968 28.26068569 -21.09756131 22.25040477 -15.04125977 16.17163086 C-13.27932764 14.40422458 -11.51195938 12.64237575 -9.74414062 10.88085938 C-8.61686583 9.75292555 -7.48990032 8.62468253 -6.36328125 7.49609375 C-5.83736893 6.97220566 -5.3114566 6.44831757 -4.76960754 5.90855408 C-2.04588371 3.20981142 -2.04588371 3.20981142 0 0 Z " fill="#2497F4" transform="translate(350,288)"/>
<path d="M0 0 C15.86621136 13.62728873 26.81593729 30.21261506 28.87890625 51.47265625 C30.52550275 77.99462132 19.72362041 97.0058482 3.37988281 116.65576172 C1.50915947 118.92022546 -0.30798742 121.2244101 -2.12109375 123.53515625 C-10.18851027 133.63211151 -18.82360693 143.24575109 -27.65136719 152.67895508 C-31.56879086 156.86511546 -35.39439037 161.11513068 -39.12109375 165.47265625 C-39.69859375 166.14425781 -40.27609375 166.81585938 -40.87109375 167.5078125 C-42.29045579 169.16044932 -43.70619854 170.81619357 -45.12109375 172.47265625 C-53.84043373 165.49718426 -61.03283355 156.93752603 -68.3203125 148.51953125 C-70.5088504 146.03190899 -72.75348566 143.59912173 -74.99609375 141.16015625 C-79.08621224 136.67521486 -82.96983181 132.06962309 -86.77734375 127.34375 C-88.4212054 125.33001948 -90.07756492 123.34772254 -91.77734375 121.3828125 C-109.38037749 101.03144216 -121.55497554 80.62284661 -120.29589844 52.67382812 C-118.99622746 36.30813889 -112.11245234 21.58313499 -101.12109375 9.47265625 C-100.37085938 8.62960938 -99.620625 7.7865625 -98.84765625 6.91796875 C-73.04217528 -20.55776989 -29.42866228 -23.47239508 0 0 Z " fill="#FCFDFD" transform="translate(558.12109375,197.52734375)"/>
<path d="M0 0 C12.10377834 8.29073834 18.9925011 20.15006637 22.2578125 34.24609375 C24.68679715 48.45778464 21.32434584 63.17156043 13.609375 75.234375 C5.55954872 86.28639059 -5.76614316 92.80311877 -19.1484375 95.40625 C-34.12344722 97.52430348 -47.75414209 94.31790721 -60.296875 85.8515625 C-71.41650054 76.89408637 -77.6647416 63.86977494 -79.296875 49.8515625 C-80.41458923 34.18429233 -76.27607656 20.41091079 -66.484375 7.9765625 C-49.4682054 -10.16501515 -20.91666856 -12.13166777 0 0 Z " fill="#013070" transform="translate(709.296875,770.1484375)"/>
<path d="M0 0 C8.58 0 17.16 0 26 0 C29.14090358 7.53816859 32.17082972 14.99016107 34.8984375 22.66796875 C35.42600647 24.14027199 35.42600647 24.14027199 35.9642334 25.64231873 C36.71488488 27.73783257 37.46422613 29.83381616 38.21234131 31.93023682 C40.20749758 37.51979557 42.21375654 43.10537025 44.21875 48.69140625 C44.62294159 49.81822815 45.02713318 50.94505005 45.443573 52.10601807 C49.21894293 62.625217 53.03408711 73.12957212 56.875 83.625 C57.32950027 84.86787781 57.32950027 84.86787781 57.79318237 86.13586426 C61.02390916 94.96544089 64.28325715 103.78349755 67.59765625 112.58203125 C67.88298218 113.33985901 68.16830811 114.09768677 68.46228027 114.878479 C69.80167142 118.4330617 71.14564431 121.98580569 72.49755859 125.53564453 C72.9611377 126.76009277 73.4247168 127.98454102 73.90234375 129.24609375 C74.30960693 130.31529053 74.71687012 131.3844873 75.13647461 132.48608398 C76 135 76 135 76 137 C67.75 137 59.5 137 51 137 C49.57298741 132.90753175 48.14786175 128.8145072 46.72753906 124.71972656 C46.24362265 123.32643703 45.7586014 121.93353072 45.27246094 120.54101562 C44.57457494 118.5413586 43.8806516 116.54036477 43.1875 114.5390625 C42.76855469 113.33459473 42.34960938 112.13012695 41.91796875 110.88916016 C41 108 41 108 41 106 C22.85 106 4.7 106 -14 106 C-14.99 109.3 -15.98 112.6 -17 116 C-17.59712358 117.86032095 -18.2028556 119.71794687 -18.82421875 121.5703125 C-19.10096436 122.39805176 -19.37770996 123.22579102 -19.6628418 124.07861328 C-20.000979 125.0839209 -20.33911621 126.08922852 -20.6875 127.125 C-21.780625 130.38375 -22.87375 133.6425 -24 137 C-32.25 137 -40.5 137 -49 137 C-48.34782646 133.08695877 -47.87464297 130.24939533 -46.55151367 126.69360352 C-46.10674934 125.48588539 -46.10674934 125.48588539 -45.65299988 124.25376892 C-45.16540947 122.9544619 -45.16540947 122.9544619 -44.66796875 121.62890625 C-44.32417679 120.69917496 -43.98038483 119.76944366 -43.62617493 118.8115387 C-42.87792465 116.7896223 -42.12727465 114.76859272 -41.37451172 112.74835205 C-39.32644006 107.25147851 -37.29566369 101.74820634 -35.26171875 96.24609375 C-34.83434418 95.09161743 -34.4069696 93.93714111 -33.96664429 92.74768066 C-28.67318644 78.43803145 -23.47657282 64.09322498 -18.2762146 49.74954224 C-12.25338218 33.13997195 -6.14979818 16.56302027 0 0 Z " fill="#013070" transform="translate(819,727)"/>
<path d="M0 0 C2.71505463 2.3105669 4.7984709 4.76262085 6.9140625 7.62890625 C7.5740625 6.92765625 8.2340625 6.22640625 8.9140625 5.50390625 C16.66425821 -2.18079485 24.45387115 -6.69069955 35.52612305 -6.84008789 C36.86284058 -6.82449829 36.86284058 -6.82449829 38.2265625 -6.80859375 C39.15573486 -6.79884521 40.08490723 -6.78909668 41.04223633 -6.77905273 C52.11644552 -6.49275953 59.65573765 -3.78947457 67.74609375 3.9921875 C74.31159724 11.97725932 76.0460427 21.56771844 76.02758789 31.64404297 C76.02773392 32.3179155 76.02787994 32.99178802 76.0280304 33.68608093 C76.02733871 35.89361898 76.01958147 38.10107061 76.01171875 40.30859375 C76.00985192 41.84701491 76.00842927 43.38543667 76.00743103 44.92385864 C76.00362669 48.9581468 75.99381434 52.99239852 75.98272705 57.02667236 C75.972468 61.14928698 75.96792381 65.27190753 75.96289062 69.39453125 C75.95219007 77.47267477 75.93461028 85.55078177 75.9140625 93.62890625 C68.3240625 93.62890625 60.7340625 93.62890625 52.9140625 93.62890625 C52.89947998 91.7372876 52.88489746 89.84566895 52.86987305 87.89672852 C52.81804295 81.61816729 52.75270979 75.33985766 52.67834759 69.06152439 C52.63378743 65.25824196 52.59450067 61.45506311 52.56762695 57.65161133 C52.54144942 53.97500676 52.50094767 50.2988039 52.45087624 46.62244987 C52.43430445 45.22602303 52.42273025 43.82952686 52.41644859 42.43301582 C52.39970981 29.17929452 52.39970981 29.17929452 46.5390625 17.69140625 C41.65464249 13.85364767 37.59827806 13.17573824 31.48046875 13.3125 C26.23365515 13.95936743 22.44579861 16.22136496 18.6015625 19.75390625 C13.59548912 28.28277201 13.45049359 37.28381181 13.40234375 46.94921875 C13.3854601 48.3025776 13.36730503 49.65592112 13.34794617 51.00924683 C13.30083906 54.5370606 13.27077774 58.06481224 13.24450684 61.59283447 C13.21450059 65.20654573 13.16804036 68.82004352 13.12304688 72.43359375 C13.03746218 79.49858836 12.97144459 86.56361799 12.9140625 93.62890625 C5.3240625 93.62890625 -2.2659375 93.62890625 -10.0859375 93.62890625 C-10.10052002 91.7372876 -10.11510254 89.84566895 -10.13012695 87.89672852 C-10.18195705 81.61816729 -10.24729021 75.33985766 -10.32165241 69.06152439 C-10.36621257 65.25824196 -10.40549933 61.45506311 -10.43237305 57.65161133 C-10.45855058 53.97500676 -10.49905233 50.2988039 -10.54912376 46.62244987 C-10.56569555 45.22602303 -10.57726975 43.82952686 -10.58355141 42.43301582 C-10.62174587 29.21000837 -10.62174587 29.21000837 -16.3984375 17.69140625 C-21.48356862 13.78886376 -26.76011255 12.84430781 -33.0859375 13.62890625 C-38.28765514 15.30403566 -41.66470441 17.35236488 -45.0859375 21.62890625 C-48.74704827 29.03002864 -48.56125761 36.28667509 -48.59765625 44.41015625 C-48.61452688 45.83363368 -48.63268029 47.25709643 -48.65205383 48.68054199 C-48.69930185 52.40237844 -48.72927319 56.12415535 -48.75549316 59.84619141 C-48.78542692 63.65409092 -48.83191276 67.46178576 -48.87695312 71.26953125 C-48.96269914 78.72257156 -49.02863834 86.175583 -49.0859375 93.62890625 C-56.6759375 93.62890625 -64.2659375 93.62890625 -72.0859375 93.62890625 C-72.0859375 60.95890625 -72.0859375 28.28890625 -72.0859375 -5.37109375 C-64.4959375 -5.37109375 -56.9059375 -5.37109375 -49.0859375 -5.37109375 C-48.7559375 -2.73109375 -48.4259375 -0.09109375 -48.0859375 2.62890625 C-47.6734375 2.23058594 -47.2609375 1.83226562 -46.8359375 1.421875 C-33.87964563 -10.46436598 -14.03148542 -10.17920488 0 0 Z " fill="#003070" transform="translate(390.0859375,770.37109375)"/>
<path d="M0 0 C3.61398819 2.76048221 6.83690161 5.73750665 10 9 C10.58394531 9.57492187 11.16789062 10.14984375 11.76953125 10.7421875 C18.23346592 17.58250318 20.75893571 26.03574284 23 35 C14.42 35 5.84 35 -3 35 C-4.98 31.37 -6.96 27.74 -9 24 C-18.15593974 15.38264495 -26.73650727 13.337726 -39.1875 13.6640625 C-50.54823536 14.6651109 -58.47543445 18.38293855 -66 27 C-75.14422204 38.35621528 -77.22016539 53.87018347 -76 68 C-74.38851147 80.49236561 -70.47217915 91.09346138 -60.57421875 99.27734375 C-50.15612188 106.24908991 -38.56362147 108.59845231 -26.2421875 106.5390625 C-16.46619669 103.93417467 -9.30073846 98.58545836 -4 90 C-3.01 88.02 -3.01 88.02 -2 86 C5.92 86 13.84 86 22 86 C20.2225967 98.44182312 14.01166854 110.09605115 4 118 C-11.53081187 128.36691472 -29.34986589 133.70681737 -48.078125 130.3515625 C-65.87541539 126.59664285 -79.99199452 116.6204704 -90.51953125 101.87109375 C-101.31151717 85.28695336 -104.06430618 64.66326368 -100.75 45.421875 C-96.66995407 26.80666546 -87.86507896 10.19912586 -71.59375 -0.47265625 C-49.01144708 -13.77036776 -22.39143749 -13.72634867 0 0 Z " fill="#013070" transform="translate(181,736)"/>
<path d="M0 0 C8.1853707 6.03911618 12.96691197 13.34178243 14.66551208 23.47425842 C15.10988583 27.1258026 15.24537143 30.61054322 15.23852539 34.28686523 C15.23867142 34.95113022 15.23881744 35.6153952 15.2389679 36.29978943 C15.23827785 38.46942549 15.23052854 40.63897291 15.22265625 42.80859375 C15.22078884 44.32316542 15.21936646 45.83773769 15.21836853 47.35231018 C15.2145688 51.31918027 15.20476051 55.28601316 15.19366455 59.25286865 C15.18339546 63.30854794 15.17885918 67.3642333 15.17382812 71.41992188 C15.16313573 79.36330014 15.1455598 87.30664114 15.125 95.25 C8.195 95.25 1.265 95.25 -5.875 95.25 C-5.875 91.62 -5.875 87.99 -5.875 84.25 C-6.535 84.25 -7.195 84.25 -7.875 84.25 C-8.1328125 84.84683594 -8.390625 85.44367188 -8.65625 86.05859375 C-11.51989487 91.20764751 -17.06690024 94.23327715 -22.5 96.125 C-34.01119406 99.10020093 -45.81397497 97.89479356 -56.125 92 C-62.34861067 87.80063442 -66.59364266 82.45553857 -68.875 75.25 C-69.83157145 67.35828557 -70.19866702 58.99680977 -65.53125 52.203125 C-57.52516164 42.76198307 -48.10646731 38.27664564 -35.875 36.25 C-33.67177398 36.17029098 -31.46636318 36.14227688 -29.26171875 36.15234375 C-28.01455078 36.15556641 -26.76738281 36.15878906 -25.48242188 36.16210938 C-24.18884766 36.17048828 -22.89527344 36.17886719 -21.5625 36.1875 C-19.59313477 36.19426758 -19.59313477 36.19426758 -17.58398438 36.20117188 C-14.3476099 36.21294051 -11.11132822 36.2293824 -7.875 36.25 C-7.99004883 35.22414795 -8.10509766 34.1982959 -8.22363281 33.14135742 C-8.63525391 29.47106934 -8.63525391 29.47106934 -9.046875 25.80078125 C-9.95580582 21.903526 -11.1004777 20.08617835 -13.875 17.25 C-19.85173771 13.6390543 -26.0081456 13.29374043 -32.875 14.25 C-36.08405113 15.40341295 -38.57049254 16.72337133 -40.875 19.25 C-41.865 21.56 -42.855 23.87 -43.875 26.25 C-51.465 26.25 -59.055 26.25 -66.875 26.25 C-64.39551924 13.85259621 -60.24062508 6.59231776 -49.875 -0.75 C-35.28471921 -8.26225767 -14.13576122 -8.76745389 0 0 Z " fill="#012F6F" transform="translate(283.875,768.75)"/>
<path d="M0 0 C6.72268321 5.52275348 11.00558447 12.85086871 12.70703125 21.40234375 C12.79506494 23.75549388 12.82467341 26.11102764 12.82055664 28.46582031 C12.82070267 29.1686615 12.82084869 29.87150269 12.82099915 30.59564209 C12.82030424 32.91144938 12.81253163 35.22717556 12.8046875 37.54296875 C12.80282182 39.15150916 12.80139862 40.76005013 12.80039978 42.36859131 C12.79658641 46.59689917 12.7867662 50.82517254 12.7756958 55.0534668 C12.76545631 59.3702752 12.76089672 63.68708919 12.75585938 68.00390625 C12.74514287 76.47006965 12.72755562 84.93619843 12.70703125 93.40234375 C5.11703125 93.40234375 -2.47296875 93.40234375 -10.29296875 93.40234375 C-10.30755127 91.44490234 -10.32213379 89.48746094 -10.3371582 87.47070312 C-10.38894527 80.98059561 -10.45426735 74.49073288 -10.52868366 68.00084686 C-10.57328274 64.06861955 -10.61256133 60.13649335 -10.6394043 56.20410156 C-10.66554247 52.40431414 -10.70601759 48.604918 -10.75615501 44.80537415 C-10.77275307 43.3606709 -10.78431111 41.91590009 -10.79058266 40.47111511 C-10.44651552 28.3262483 -10.44651552 28.3262483 -15.74433899 17.86047363 C-22.23393583 12.23890577 -29.12737638 12.75740124 -37.29980469 13.19335938 C-41.61794621 13.64611895 -44.48421737 15.12909602 -47.29296875 18.40234375 C-51.42992546 24.88532148 -53.38572319 30.709646 -53.49829102 38.36425781 C-53.51823624 39.56520081 -53.53818146 40.7661438 -53.55873108 42.003479 C-53.58379982 43.94115143 -53.58379982 43.94115143 -53.609375 45.91796875 C-53.62995838 47.25747296 -53.65095521 48.59697088 -53.67234802 49.9364624 C-53.72742584 53.45449716 -53.77689781 56.97258915 -53.82519531 60.49072266 C-53.875515 64.08371039 -53.93114631 67.67661548 -53.98632812 71.26953125 C-54.09373477 78.31373172 -54.19472713 85.35800863 -54.29296875 92.40234375 C-61.55296875 92.40234375 -68.81296875 92.40234375 -76.29296875 92.40234375 C-76.29296875 60.06234375 -76.29296875 27.72234375 -76.29296875 -5.59765625 C-69.03296875 -5.59765625 -61.77296875 -5.59765625 -54.29296875 -5.59765625 C-53.96296875 -2.62765625 -53.63296875 0.34234375 -53.29296875 3.40234375 C-52.34421875 2.49484375 -51.39546875 1.58734375 -50.41796875 0.65234375 C-36.50552239 -11.30896684 -14.60158653 -10.11351993 0 0 Z " fill="#012F6F" transform="translate(604.29296875,770.59765625)"/>
<path d="M0 0 C8.25 0 16.5 0 25 0 C25 44.88 25 89.76 25 136 C16.75 136 8.5 136 0 136 C0 91.12 0 46.24 0 0 Z " fill="#003372" transform="translate(910,728)"/>
<path d="M0 0 C7.65919267 4.57386418 13.00870678 10.61480228 15.8203125 19.17578125 C17.69202976 29.45150902 16.51789588 38.8427385 10.73828125 47.53515625 C5.84057148 53.75281617 -0.97620075 57.84181176 -8.7890625 59.3203125 C-18.82729094 60.34224555 -26.44838036 59.17087794 -34.7890625 53.3203125 C-42.00987365 47.21221651 -45.90714668 39.88874802 -47.1640625 30.52734375 C-47.5559525 21.84453086 -45.03048103 14.71815002 -39.5390625 8.0078125 C-29.25232906 -2.91908246 -13.83546746 -6.57299617 0 0 Z " fill="#26A2F8" transform="translate(526.7890625,228.6796875)"/>
<path d="M0 0 C5.96090059 4.31335801 9.52669291 9.80008854 11 17 C11.30534914 20.1896022 11.40551764 23.35929553 11.4375 26.5625 C11.44773193 27.35366211 11.45796387 28.14482422 11.46850586 28.95996094 C11.33777037 37.78414915 9.04247145 44.80412279 2.97265625 51.2734375 C-3.40299559 56.85371099 -10.51729427 58.37952568 -18.796875 58.26953125 C-25.71033245 57.6877891 -31.06635157 55.41846565 -35.875 50.375 C-43.25120348 40.83650519 -44.38003345 30.71602781 -43 19 C-41.00195269 10.2228636 -37.26424228 4.08782431 -29.76953125 -0.9296875 C-20.68999728 -6.42150275 -8.92811309 -5.21451319 0 0 Z " fill="#FCFCFD" transform="translate(697,787)"/>
<path d="M0 0 C7.59 0 15.18 0 23 0 C23 32.67 23 65.34 23 99 C15.41 99 7.82 99 0 99 C0 66.33 0 33.66 0 0 Z " fill="#002D6E" transform="translate(485,765)"/>
<path d="M0 0 C2.15318453 3.2297768 3.11933413 6.0498388 4.3203125 9.73828125 C4.54026382 10.40780319 4.76021515 11.07732513 4.98683167 11.76713562 C5.45854345 13.20329895 5.92839883 14.64007309 6.39657593 16.07739258 C7.61696702 19.82205904 8.85185803 23.56189956 10.08984375 27.30078125 C10.45904686 28.4158757 10.45904686 28.4158757 10.83570862 29.55349731 C13.31629065 37.01006525 15.97812168 44.39623169 18.71337891 51.76293945 C21 57.92206401 21 57.92206401 21 59 C7.47 59 -6.06 59 -20 59 C-13.45399187 39.28758917 -6.90870872 19.5882212 0 0 Z " fill="#FBFBFC" transform="translate(832,754)"/>
<path d="M0 0 C1.60488281 0.00483398 1.60488281 0.00483398 3.2421875 0.00976562 C4.35335938 0.01814453 5.46453125 0.02652344 6.609375 0.03515625 C8.29933594 0.04192383 8.29933594 0.04192383 10.0234375 0.04882812 C12.80213717 0.06060228 15.58072909 0.07704785 18.359375 0.09765625 C18.38825847 1.8410471 18.40875917 3.584578 18.42578125 5.328125 C18.43810791 6.29903076 18.45043457 7.26993652 18.46313477 8.27026367 C18.24755612 14.14465495 16.51146682 18.36130831 12.234375 22.41015625 C6.37348515 26.92895158 -0.2196226 28.67735234 -7.5703125 28.3828125 C-11.92528159 27.78297713 -14.72006494 25.87286472 -18.015625 23.09765625 C-20.49630859 18.51793271 -20.3924337 14.19154375 -19.640625 9.09765625 C-16.99808207 4.21911545 -13.02259841 2.15193561 -7.80566406 0.52563477 C-5.16214896 0.00307252 -2.69487301 -0.01433443 0 0 Z " fill="#FBFCFD" transform="translate(257.640625,819.90234375)"/>
<path d="M0 0 C3.89195522 1.98135902 6.94325506 4.10300958 9 8 C10.38242317 14.02341524 10.18456076 17.48009468 7 23 C2.09246573 27.5484464 -1.00649369 28.29381014 -7.52734375 28.21875 C-12.6131517 27.7688207 -15.75003066 24.71425067 -19 21 C-20.59121454 16.22635638 -20.79879085 11.84983145 -18.8125 7.25 C-13.39057354 0.51933267 -8.33761503 -0.93493993 0 0 Z " fill="#012F70" transform="translate(502,724)"/>
<path d="M0 0 C8.25 0 16.5 0 25 0 C25 44.88 25 89.76 25 136 C16.75 136 8.5 136 0 136 C0 91.12 0 46.24 0 0 Z M2 1 C2 44.89 2 88.78 2 134 C9.26 134 16.52 134 24 134 C24 90.11 24 46.22 24 1 C16.74 1 9.48 1 2 1 Z " fill="#00155B" transform="translate(910,728)"/>
<path d="M0 0 C4.8658799 4.05402501 9.44130453 8.30274869 13.90254211 12.79574585 C14.88944944 13.78348824 14.88944944 13.78348824 15.8962943 14.79118502 C18.08339728 16.98130548 20.26690019 19.17497931 22.45043945 21.36865234 C24.02433066 22.9461024 25.59845896 24.52331594 27.17280579 26.10031128 C30.55336508 29.48740498 33.93241081 32.87599889 37.31032753 36.265728 C42.64724837 41.62096641 47.98853653 46.9718343 53.33061218 52.32192993 C60.81417636 59.81738806 68.29669779 67.3138848 75.77758789 74.81201172 C76.25160312 75.28711707 76.72561835 75.76222243 77.21399768 76.25172491 C83.95493356 83.0083029 90.69438621 89.76635846 97.43326398 96.52498908 C97.90879517 97.00191358 98.38432635 97.47883809 98.87426758 97.97021484 C99.349217 98.4465578 99.82416642 98.92290075 100.31350825 99.41367833 C108.22247145 107.34564631 116.13532689 115.27371869 124.05124253 123.19874918 C129.36775493 128.52182051 134.67972029 133.84937624 139.98841727 139.18024135 C143.28165541 142.48516457 146.57902354 145.78594232 149.87760735 149.08552933 C151.41207741 150.62215636 152.94481388 152.16051668 154.4757309 153.70068359 C156.55673216 155.79377628 158.64371153 157.88071464 160.7323761 159.96615601 C161.3443273 160.58461501 161.95627851 161.20307402 162.58677369 161.84027421 C165.28673936 164.95707328 165.28673936 164.95707328 169 166 C169.474375 166.804375 169.94875 167.60875 170.4375 168.4375 C171.79983672 171.2918076 171.79983672 171.2918076 175 172 C175.33 172.99 175.66 173.98 176 175 C176.99 175.33 177.98 175.66 179 176 C179 176.66 179 177.32 179 178 C188.52132459 186.27817163 188.52132459 186.27817163 200 190 C200 190.66 200 191.32 200 192 C201.32 192.66 202.64 193.32 204 194 C199.1245438 193.45500943 195.6395547 192.02687563 191.375 189.625 C190.26898438 189.01914062 189.16296875 188.41328125 188.0234375 187.7890625 C175.60274152 179.79608815 165.23081729 167.37977495 154.84863281 156.99389648 C153.15250029 155.30076167 151.45616483 153.60783013 149.75964355 151.91508484 C145.18783434 147.35204765 140.61921437 142.7858306 136.05146885 138.21872592 C133.19703611 135.36478967 130.34170607 132.51175235 127.48616791 129.6589222 C118.03673257 120.21826532 108.58936724 110.77554409 99.14469662 101.33012044 C98.63771822 100.82310208 98.13073982 100.31608372 97.60839844 99.79370117 C97.10079872 99.28606057 96.59319899 98.77841997 96.07021746 98.25539631 C87.81083574 89.99560656 79.54645316 81.74084029 71.27984372 73.48828482 C62.77800093 65.00078176 54.27986748 56.50958043 45.78562427 48.01447159 C41.02174564 43.25026067 36.25633155 38.48760909 31.48691559 33.72894096 C27.01404324 29.26569952 22.5459297 24.79774997 18.08152771 20.32603645 C16.43846116 18.68191849 14.79366683 17.03952523 13.14707184 15.39894104 C10.9097692 13.16928158 8.67863567 10.93363164 6.44903564 8.6962738 C5.78797797 8.0403597 5.1269203 7.38444559 4.44583058 6.7086553 C0 2.22827349 0 2.22827349 0 0 Z " fill="#0A82F1" transform="translate(269,446)"/>
<path d="M0 0 C2.12188907 4.24377814 2.2440091 6.14150613 2.22705078 10.78808594 C2.22734283 11.46166641 2.22763489 12.13524689 2.22793579 12.82923889 C2.22654641 15.04775026 2.21100401 17.26592256 2.1953125 19.484375 C2.19158097 21.02565324 2.18873466 22.56693387 2.18673706 24.10821533 C2.17911161 28.15902286 2.15947253 32.2096863 2.1373291 36.26043701 C2.1168472 40.3962611 2.10773033 44.53210853 2.09765625 48.66796875 C2.07622553 56.77871923 2.04105232 64.88932507 2 73 C-5.59 73 -13.18 73 -21 73 C-21 51.55 -21 30.1 -21 8 C-20.67 8 -20.34 8 -20 8 C-20 28.79 -20 49.58 -20 71 C-13.4 71 -6.8 71 0 71 C0 47.57 0 24.14 0 0 Z " fill="#1F2E6A" transform="translate(464,791)"/>
<path d="M0 0 C2.31118163 3.46677244 2.24417896 4.76331881 2.22705078 8.84838867 C2.22689972 10.0494072 2.22674866 11.25042572 2.22659302 12.48783875 C2.21627045 13.78478165 2.20594788 15.08172455 2.1953125 16.41796875 C2.19158155 17.75889373 2.18873497 19.09982144 2.18673706 20.44075012 C2.17910699 23.96714833 2.15946403 27.49338134 2.1373291 31.01971436 C2.1168571 34.61923996 2.10773245 38.21879231 2.09765625 41.81835938 C2.07621743 48.87898021 2.04104046 55.93946194 2 63 C8.6 63 15.2 63 22 63 C22 43.2 22 23.4 22 3 C22.33 3 22.66 3 23 3 C23 23.46 23 43.92 23 65 C15.41 65 7.82 65 0 65 C0 43.55 0 22.1 0 0 Z " fill="#061A5F" transform="translate(380,799)"/>
<path d="M0 0 C4.70332185 3.39619518 8.95982156 6.84099278 13 11 C13.66 11.33 14.32 11.66 15 12 C15.33 12.99 15.66 13.98 16 15 C16.99 15.33 17.98 15.66 19 16 C19 16.66 19 17.32 19 18 C28.52132459 26.27817163 28.52132459 26.27817163 40 30 C40 30.66 40 31.32 40 32 C41.32 32.66 42.64 33.32 44 34 C31.82348049 32.63887848 21.90418684 23.8405158 13.52050781 15.51025391 C11.89028193 13.89102184 10.23911724 12.29498994 8.5859375 10.69921875 C7.47268088 9.61328723 6.36066753 8.52607945 5.25 7.4375 C4.72390137 6.92477539 4.19780273 6.41205078 3.65576172 5.88378906 C2.39753846 4.62768046 1.19320569 3.31802685 0 2 C0 1.34 0 0.68 0 0 Z " fill="#1584F0" transform="translate(429,606)"/>
<path d="M0 0 C1.35865782 4.07597347 -0.05431183 6.81762578 -1.4375 10.6875 C-2.283125 13.100625 -3.12875 15.51375 -4 18 C-12.25 18 -20.5 18 -29 18 C-28.67 16.68 -28.34 15.36 -28 14 C-27.67 14.66 -27.34 15.32 -27 16 C-19.74 16 -12.48 16 -5 16 C-4.54625 14.288125 -4.0925 12.57625 -3.625 10.8125 C-2.63721296 7.08584888 -1.49480306 3.55503162 0 0 Z " fill="#0A2366" transform="translate(799,846)"/>
<path d="M0 0 C3.71980755 0.21256043 4.97426295 0.97601775 7.75 3.5625 C10.45692155 7.1431747 11.29340698 10.53848795 11 15 C9.43102116 20.22992948 7.53499619 22.97666921 3 26 C-0.21451269 27.60725635 -3.43612536 27.05748185 -7 27 C-7 26.67 -7 26.34 -7 26 C-6.39671875 25.89042969 -5.7934375 25.78085937 -5.171875 25.66796875 C1.01351853 24.57269469 1.01351853 24.57269469 6 21 C6.79623822 18.90584196 6.79623822 18.90584196 7 17 C7.66 17 8.32 17 9 17 C8.74545148 11.15811146 8.38473741 7.25945919 4 3 C1.87396815 1.23676495 1.87396815 1.23676495 0 0 Z " fill="#0B1C60" transform="translate(501,725)"/>
<path d="M0 0 C0.66 0.33 1.32 0.66 2 1 C2.66 3.31 3.32 5.62 4 8 C-4.25 8 -12.5 8 -21 8 C-21 7.34 -21 6.68 -21 6 C-13.74 5.67 -6.48 5.34 1 5 C0.67 3.35 0.34 1.7 0 0 Z " fill="#042568" transform="translate(891,856)"/>
<path d="M0 0 C0.33 0 0.66 0 1 0 C1.33 3.3 1.66 6.6 2 10 C7.94 10 13.88 10 20 10 C20.33 10.66 20.66 11.32 21 12 C14.07 12 7.14 12 0 12 C0 8.04 0 4.08 0 0 Z " fill="#122A6D" transform="translate(278,852)"/>
<path d="M0 0 C0.66 0.99 1.32 1.98 2 3 C0.91332031 3.85271484 0.91332031 3.85271484 -0.1953125 4.72265625 C-6.7587382 9.93167496 -6.7587382 9.93167496 -12.5 16 C-15 19 -15 19 -18 20 C-16.5735422 16.7413364 -14.83295838 14.5975146 -12.3046875 12.109375 C-11.23154297 11.04589844 -11.23154297 11.04589844 -10.13671875 9.9609375 C-9.39035156 9.23132813 -8.64398437 8.50171875 -7.875 7.75 C-7.12089844 7.00492187 -6.36679687 6.25984375 -5.58984375 5.4921875 C-3.73099228 3.6568658 -1.86762995 1.8263809 0 0 Z " fill="#1191F6" transform="translate(653,421)"/>
<path d="M0 0 C0.33 0 0.66 0 1 0 C1.1875 2.3125 1.1875 2.3125 1 5 C0.52304687 5.43441406 0.04609375 5.86882812 -0.4453125 6.31640625 C-2.57604344 8.62380584 -2.64395276 10.54481737 -3.0625 13.625 C-3.47265625 16.6015625 -3.47265625 16.6015625 -4 19 C-4.66 19.33 -5.32 19.66 -6 20 C-6.65031566 12.52136987 -4.13145743 6.19718614 0 0 Z " fill="#1F9FF8" transform="translate(486,238)"/>
<path d="M0 0 C0.66 0 1.32 0 2 0 C2.66 0.99 3.32 1.98 4 3 C6.56282742 3.72965366 6.56282742 3.72965366 9 4 C9 6.66666667 9 9.33333333 9 12 C7.49405319 10.38050958 5.99539332 8.75424026 4.5 7.125 C3.6646875 6.22007812 2.829375 5.31515625 1.96875 4.3828125 C0 2 0 2 0 0 Z " fill="#199BF6" transform="translate(429,388)"/>
<path d="M0 0 C0.33 0.66 0.66 1.32 1 2 C7.6 2 14.2 2 21 2 C21 2.33 21 2.66 21 3 C10.11 3.495 10.11 3.495 -1 4 C-0.67 2.68 -0.34 1.36 0 0 Z " fill="#02195E" transform="translate(771,860)"/>
<path d="M0 0 C0 3.96130371 -1.34877125 4.82914401 -4 7.6875 C-4.7425 8.49574219 -5.485 9.30398438 -6.25 10.13671875 C-6.8275 10.75160156 -7.405 11.36648438 -8 12 C-8.66 11.34 -9.32 10.68 -10 10 C-9.360625 9.401875 -8.72125 8.80375 -8.0625 8.1875 C-5.79689611 6.09189663 -5.79689611 6.09189663 -5 3 C-2.4375 1.3125 -2.4375 1.3125 0 0 Z " fill="#1698F7" transform="translate(536,457)"/>
<path d="M0 0 C0.33 0.99 0.66 1.98 1 3 C0.01 3.33 -0.98 3.66 -2 4 C-2.309375 4.61875 -2.61875 5.2375 -2.9375 5.875 C-4.20298687 8.40597375 -5.67272837 9.44848558 -8 11 C-8.66 10.67 -9.32 10.34 -10 10 C-6.7 6.7 -3.4 3.4 0 0 Z " fill="#1497F7" transform="translate(340,299)"/>
<path d="M0 0 C1.12438477 0.14985352 1.12438477 0.14985352 2.27148438 0.30273438 C4.11931482 0.54989641 5.9660266 0.80539611 7.8125 1.0625 C7.8125 1.3925 7.8125 1.7225 7.8125 2.0625 C5.39553128 2.11661124 2.97978213 2.15622278 0.5625 2.1875 C-0.11941406 2.20425781 -0.80132812 2.22101562 -1.50390625 2.23828125 C-5.2483235 2.27463482 -8.01102727 2.14194349 -11.1875 0.0625 C-7.28297658 -1.23900781 -3.98289691 -0.56004053 0 0 Z " fill="#0D78EE" transform="translate(496.1875,642.9375)"/>
<path d="M0 0 C0.33 0.66 0.66 1.32 1 2 C1.99 1.67 2.98 1.34 4 1 C2.44499019 4.81684226 -0.03595495 7.19195732 -3 10 C-2.05066101 6.64566891 -1.10251165 3.30753495 0 0 Z " fill="#1DA3F8" transform="translate(620,353)"/>
<path d="M0 0 C0 3.77910478 -0.99703962 4.46106101 -3.5 7.1875 C-4.47453125 8.26064453 -4.47453125 8.26064453 -5.46875 9.35546875 C-5.9740625 9.89816406 -6.479375 10.44085938 -7 11 C-7.33 10.01 -7.66 9.02 -8 8 C-7.34 7.67 -6.68 7.34 -6 7 C-5.71125 6.38125 -5.4225 5.7625 -5.125 5.125 C-3.80519587 2.63203665 -2.32278328 1.54852219 0 0 Z " fill="#189DF8" transform="translate(593,390)"/>
<path d="M0 0 C0.66 0 1.32 0 2 0 C2.474375 0.804375 2.94875 1.60875 3.4375 2.4375 C4.79983672 5.2918076 4.79983672 5.2918076 8 6 C8.33 7.65 8.66 9.3 9 11 C2.21917808 5.57534247 2.21917808 5.57534247 0 2 C0 1.34 0 0.68 0 0 Z " fill="#1698F6" transform="translate(446,408)"/>
<path d="M0 0 C0.33 1.32 0.66 2.64 1 4 C0.360625 4.28875 -0.27875 4.5775 -0.9375 4.875 C-3.15206079 5.82823451 -3.15206079 5.82823451 -4 8 C-4.66 7.34 -5.32 6.68 -6 6 C-4.02 4.02 -2.04 2.04 0 0 Z " fill="#2BA1F7" transform="translate(290,348)"/>
<path d="M0 0 C0.66 0.99 1.32 1.98 2 3 C-1.465 4.485 -1.465 4.485 -5 6 C-3.63016497 2.83884224 -3.0109362 2.0072908 0 0 Z " fill="#072567" transform="translate(557,769)"/>
<path d="M0 0 C0 0.66 0 1.32 0 2 C-1.96147874 3.38938077 -3.96166576 4.7260411 -6 6 C-6.33 5.01 -6.66 4.02 -7 3 C-4.49955934 -0.00052879 -4.2621484 0 0 0 Z " fill="#31A5F7" transform="translate(317,325)"/>
<path d="M0 0 C1.231394 2.46278801 1.07159196 4.2795055 1 7 C0.34 7 -0.32 7 -1 7 C-1.33 7.99 -1.66 8.98 -2 10 C-3.39195915 5.82412255 -1.82323219 3.86525224 0 0 Z " fill="#041B5F" transform="translate(783,827)"/>
<path d="M0 0 C1.0625 1.875 1.0625 1.875 2 4 C1.67 4.66 1.34 5.32 1 6 C0.34 6 -0.32 6 -1 6 C-1.66 7.32 -2.32 8.64 -3 10 C-2.69201674 8.51988629 -2.378482 7.04092675 -2.0625 5.5625 C-1.88847656 4.73878906 -1.71445312 3.91507813 -1.53515625 3.06640625 C-1 1 -1 1 0 0 Z " fill="#061B60" transform="translate(795,794)"/>
<path d="M0 0 C0 4.31618166 -2.13270348 5.92789659 -5 9 C-5.66 9 -6.32 9 -7 9 C-5.44499019 5.18315774 -2.96404505 2.80804268 0 0 Z " fill="#17A0F8" transform="translate(532,348)"/>
<path d="M0 0 C0.33 0.66 0.66 1.32 1 2 C-0.65 3.98 -2.3 5.96 -4 8 C-4.66 7.67 -5.32 7.34 -6 7 C-4.02 4.69 -2.04 2.38 0 0 Z " fill="#16A1F7" transform="translate(548,330)"/>
<path d="M0 0 C0.33 0 0.66 0 1 0 C1.36923077 4.55384615 1.36923077 4.55384615 -0.5 6.8125 C-0.995 7.204375 -1.49 7.59625 -2 8 C-2.66 7.67 -3.32 7.34 -4 7 C-2.68 4.69 -1.36 2.38 0 0 Z " fill="#1699F6" transform="translate(486,238)"/>
<path d="M0 0 C0.66 0.33 1.32 0.66 2 1 C2.73075648 3.3140622 3.40138258 5.64828869 4 8 C1.69 7.67 -0.62 7.34 -3 7 C-1.68 6.34 -0.36 5.68 1 5 C0.67 3.35 0.34 1.7 0 0 Z " fill="#0B1B5F" transform="translate(891,856)"/>
<path d="M0 0 C1.32 0.66 2.64 1.32 4 2 C4 2.66 4 3.32 4 4 C1.03 3.67 -1.94 3.34 -5 3 C-3.68 2.34 -2.36 1.68 -1 1 C-0.67 0.67 -0.34 0.34 0 0 Z " fill="#072A6C" transform="translate(200,767)"/>
<path d="M0 0 C0.99 0.66 1.98 1.32 3 2 C3 2.66 3 3.32 3 4 C2.34 4 1.68 4 1 4 C0.67 4.66 0.34 5.32 0 6 C-0.66 4.35 -1.32 2.7 -2 1 C-1.34 0.67 -0.68 0.34 0 0 Z " fill="#26A2F8" transform="translate(379,353)"/>
</svg>
